<?xml version="1.0" encoding="UTF-8" standalone="no"?>
<!DOCTYPE svg PUBLIC "-//W3C//DTD SVG 1.1//EN" "http://www.w3.org/Graphics/SVG/1.1/DTD/svg11.dtd">
<svg xmlns="http://www.w3.org/2000/svg" xmlns:xlink="http://www.w3.org/1999/xlink" version="1.1" width="612pt" height="792pt" viewBox="0 0 612 792">
<g enable-background="new">
<g>
<clipPath id="cp0">
<path transform="matrix(1,0,0,-1,0,792)" d="M 0 .028 L 611.971 .028 L 611.971 791.999 L 0 791.999 Z " fill-rule="evenodd"/>
</clipPath>
<g clip-path="url(#cp0)">
<path transform="matrix(1,0,0,-1,0,792)" d="M 0 792 L 611.972 792 L 611.972 .028 L 0 .028 L 0 792 Z " fill="#ffffff" fill-rule="evenodd"/>
<path transform="matrix(1,0,0,-1,0,792)" d="M 96.945 0 L -5.443 0 L -5.443 792 L 199.304 792 L 199.304 0 L 96.945 0 Z " fill="#355269" fill-rule="evenodd"/>
<path transform="matrix(1,0,0,-1,0,792)" stroke-width="0" stroke-linecap="butt" stroke-linejoin="round" fill="none" stroke="#355269" d="M 96.945 0 L -5.443 0 L -5.443 792 L 199.304 792 L 199.304 0 L 96.945 0 Z "/>
<text fill="#ffffff" xml:space="preserve" transform="matrix(1 0 -0 1 0 792)" font-size="50.003" font-family="TimesNewRomanPS" font-weight="bold"><tspan y="-725.499" x="17.405 64.65784 89.709339 111.860668 128.51166 142.36249">Martin</tspan></text>
<text fill="#ffffff" xml:space="preserve" transform="matrix(1 0 -0 1 0 792)" font-size="50.003" font-family="TimesNewRomanPS" font-weight="bold"><tspan y="-669.997" x="17.405 47.956834 70.10816 86.75916 108.160449 133.16194">Petrov</tspan></text>
<path transform="matrix(1,0,0,-1,0,792)" stroke-width="0" stroke-linecap="butt" stroke-linejoin="round" fill="none" stroke="#355269" d="M 104.825 603.496 L 10.318 603.496 L 10.318 628.696 L 199.304 628.696 L 199.304 603.496 L 104.825 603.496 Z "/>
<text fill="#ffffff" xml:space="preserve" transform="matrix(1 0 -0 1 0 792)" font-size="25.994" font-family="TimesNewRomanPS" font-weight="bold"><tspan y="-634.309" x="16.413 35.28465 48.35963 62.838289 71.44231 84.51729 96.00664">Contact</tspan></text>
<text fill="#dddddd" xml:space="preserve" transform="matrix(1 0 -0 1 0 792)" font-size="4.904" font-family="OpenSymbol"><tspan y="-619.087" x="21.005">&#x2014;</tspan></text>
<text fill="#eeeeee" xml:space="preserve" transform="matrix(1 0 -0 1 0 792)" font-size="10.998" font-family="Helvetica"><tspan y="-617.187" x="38.013 44.204874 50.30876 56.41265 59.50309 66.80576 69.995189 77.29786 80.3883 84.072628 90.2645 96.258419 99.44784 102.53828 105.628719 113.52528 119.71716 125.21616 127.61373 133.11273 136.20317 142.30706 148.49892 154.6028 160.70668">513 E Street, Davis 95616</tspan></text>
<text fill="#dddddd" xml:space="preserve" transform="matrix(1 0 -0 1 0 792)" font-size="4.904" font-family="OpenSymbol"><tspan y="-603.694" x="21.005">&#x2014;</tspan></text>
<text fill="#eeeeee" xml:space="preserve" transform="matrix(1 0 -0 1 0 792)" font-size="10.998" font-family="Helvetica"><tspan y="-601.909" x="38.013 44.50182 50.69369 54.37802 60.48191 66.5858 72.68969 76.473 80.157329 86.261219 92.365108 98.468997 102.15332 108.3452 114.44909 120.55298">+1(310)-916-3283</tspan></text>
<text fill="#dddddd" xml:space="preserve" transform="matrix(1 0 -0 1 0 792)" font-size="4.904" font-family="OpenSymbol"><tspan y="-588.387" x="21.005">&#x2014;</tspan></text>
<text fill="#eeeeee" xml:space="preserve" transform="matrix(1 0 -0 1 0 792)" font-size="10.998" font-family="Helvetica"><tspan y="-586.488" x="38.013 47.295316 49.69288 55.79677 61.900659 65.09008 68.77441 74.878299 80.3773 91.56226 97.66615 103.16515 109.26904 115.46092 120.95992 123.35749 128.85649 131.94693 138.05081 144.24268">mlpetrov@ucdavis.edu</tspan></text>
<text fill="#dddddd" xml:space="preserve" transform="matrix(1 0 -0 1 0 792)" font-size="4.904" font-family="OpenSymbol"><tspan y="-572.995" x="21.005">&#x2014;</tspan></text>
<text fill="#eeeeee" xml:space="preserve" transform="matrix(1 0 -0 1 0 792)" font-size="10.998" font-family="Helvetica"><tspan y="-571.096" x="38.013 44.50182 47.691244 49.989824 56.181695 59.272134 68.45547 74.55936 78.24368 81.433109 83.83067 89.93456 93.61889 99.72278 105.91466 109.0051 112.68942 118.79331 124.29231 128.07563 134.1795 140.28339 146.38727 152.49115 158.68302 164.7869 170.89078 176.99466 183.09854">~/in/martin-petrov-5062aa160/</tspan></text>
<text fill="#ffffff" xml:space="preserve" transform="matrix(1 0 -0 1 0 792)" font-size="25.994" font-family="TimesNewRomanPS" font-weight="bold"><tspan y="-536.797" x="16.413 32.373319 43.472757 56.469758 65.15176 72.3521 83.841449 91.04179 102.531139 117.009799">Proficient</tspan></text>
<text fill="#cccccc" xml:space="preserve" transform="matrix(1 0 -0 1 0 792)" font-size="4.904" font-family="OpenSymbol"><tspan y="-521.603" x="21.005">&#x2014;</tspan></text>
<text fill="#eeeeee" xml:space="preserve" transform="matrix(1 0 -0 1 0 792)" font-size="10.998" font-family="Helvetica"><tspan y="-519.704" x="38.013 43.599985 49.703874 55.202875 61.306764 66.80576 72.392749 76.07707 78.47464 84.57853 87.66897 90.85839 93.94883 101.8454 108.543178 117.72651 123.91839 127.00883 130.09926 137.99582 145.29848">Javascript, HTML, CSS</tspan></text>
<text fill="#cccccc" xml:space="preserve" transform="matrix(1 0 -0 1 0 792)" font-size="4.904" font-family="OpenSymbol"><tspan y="-506.211" x="21.005">&#x2014;</tspan></text>
<text fill="#eeeeee" xml:space="preserve" transform="matrix(1 0 -0 1 0 792)" font-size="10.998" font-family="Helvetica"><tspan y="-504.397" x="38.013 45.909566 52.101438 58.205327 64.30921 69.80821">NodeJs</tspan></text>
<text fill="#cccccc" xml:space="preserve" transform="matrix(1 0 -0 1 0 792)" font-size="4.904" font-family="OpenSymbol"><tspan y="-490.904" x="21.005">&#x2014;</tspan></text>
<text fill="#eeeeee" xml:space="preserve" transform="matrix(1 0 -0 1 0 792)" font-size="10.998" font-family="Helvetica"><tspan y="-489.005" x="38.013 45.00773 51.298585 57.402475 62.901475">VueJs</tspan></text>
<text fill="#cccccc" xml:space="preserve" transform="matrix(1 0 -0 1 0 792)" font-size="4.904" font-family="OpenSymbol"><tspan y="-475.512" x="21.005">&#x2014;</tspan></text>
<text fill="#eeeeee" xml:space="preserve" transform="matrix(1 0 -0 1 0 792)" font-size="10.998" font-family="Helvetica"><tspan y="-473.613" x="38.013 45.909566 49.098989 52.189428 60.08599 66.18988 69.3793 72.46974 80.36631 86.85513">C, C#, C++</tspan></text>
<text fill="#cccccc" xml:space="preserve" transform="matrix(1 0 -0 1 0 792)" font-size="4.904" font-family="OpenSymbol"><tspan y="-460.091" x="21.005">&#x2014;</tspan></text>
<text fill="#eeeeee" xml:space="preserve" transform="matrix(1 0 -0 1 0 792)" font-size="10.998" font-family="Helvetica"><tspan y="-458.306" x="38.013 41.202425 49.098989 56.40166 62.90148 65.99192 73.88849 80.08037 83.764698">.NET Core</tspan></text>
<text fill="#cccccc" xml:space="preserve" transform="matrix(1 0 -0 1 0 792)" font-size="4.904" font-family="OpenSymbol"><tspan y="-444.813" x="21.005">&#x2014;</tspan></text>
<text fill="#eeeeee" xml:space="preserve" transform="matrix(1 0 -0 1 0 792)" font-size="10.998" font-family="Helvetica"><tspan y="-442.913" x="38.013 44.204874 46.602437 52.706327 58.810216">Linux</tspan></text>
<text fill="#cccccc" xml:space="preserve" transform="matrix(1 0 -0 1 0 792)" font-size="4.904" font-family="OpenSymbol"><tspan y="-429.392" x="21.005">&#x2014;</tspan></text>
<text fill="#eeeeee" xml:space="preserve" transform="matrix(1 0 -0 1 0 792)" font-size="10.998" font-family="Helvetica"><tspan y="-427.493" x="38.013 45.403657 50.902658 53.993097 60.096986 66.200878">Python</tspan></text>
<text fill="#cccccc" xml:space="preserve" transform="matrix(1 0 -0 1 0 792)" font-size="4.904" font-family="OpenSymbol"><tspan y="-414.113" x="21.005">&#x2014;</tspan></text>
<text fill="#eeeeee" xml:space="preserve" transform="matrix(1 0 -0 1 0 792)" font-size="10.998" font-family="Helvetica"><tspan y="-412.186" x="38.013 46.701425 49.098989">Git</tspan></text>
<text fill="#cccccc" xml:space="preserve" transform="matrix(1 0 -0 1 0 792)" font-size="4.904" font-family="OpenSymbol"><tspan y="-398.693" x="21.005">&#x2014;</tspan></text>
<text fill="#eeeeee" xml:space="preserve" transform="matrix(1 0 -0 1 0 792)" font-size="10.998" font-family="Helvetica"><tspan y="-396.794" x="38.013 45.403657 53.993097">SQL</tspan></text>
<text fill="#cccccc" xml:space="preserve" transform="matrix(1 0 -0 1 0 792)" font-size="4.904" font-family="OpenSymbol"><tspan y="-383.301" x="21.005">&#x2014;</tspan></text>
<text fill="#eeeeee" xml:space="preserve" transform="matrix(1 0 -0 1 0 792)" font-size="10.998" font-family="Helvetica"><tspan y="-381.487" x="38.013 45.909566 52.101438 57.600439 63.099439 69.29131">Docker</tspan></text>
<text fill="#ffffff" xml:space="preserve" transform="matrix(1 0 -0 1 0 792)" font-size="25.994" font-family="TimesNewRomanPS" font-weight="bold"><tspan y="-347.102" x="16.413 32.893198 46.35809 68.530979 76.09523 83.763469 91.32772 104.89659">Familiar</tspan></text>
<text fill="#ffffff" xml:space="preserve" transform="matrix(1 0 -0 1 0 792)" font-size="4.904" font-family="OpenSymbol"><tspan y="-331.909" x="21.005">&#x2014;</tspan></text>
<text fill="#eeeeee" xml:space="preserve" transform="matrix(1 0 -0 1 0 792)" font-size="10.998" font-family="Helvetica"><tspan y="-330.094" x="38.013 45.909566 52.101438 58.205327 63.704328">React</tspan></text>
<text fill="#ffffff" xml:space="preserve" transform="matrix(1 0 -0 1 0 792)" font-size="4.904" font-family="OpenSymbol"><tspan y="-315.099" x="21.005">&#x2014;</tspan></text>
<text fill="#eeeeee" xml:space="preserve" transform="matrix(1 0 -0 1 0 792)" font-size="10.998" font-family="Helvetica"><tspan y="-313.313" x="38.013 43.599985 49.703874 55.202875">Java</tspan></text>
<text fill="#ffffff" xml:space="preserve" transform="matrix(1 0 -0 1 0 792)" font-size="4.904" font-family="OpenSymbol"><tspan y="-298.29" x="21.005">&#x2014;</tspan></text>
<text fill="#eeeeee" xml:space="preserve" transform="matrix(1 0 -0 1 0 792)" font-size="10.998" font-family="Helvetica"><tspan y="-296.391" x="38.013 43.599985 52.189424 58.293313 64.3972 68.18051">JQuery</tspan></text>
<text fill="#ffffff" xml:space="preserve" transform="matrix(1 0 -0 1 0 792)" font-size="4.904" font-family="OpenSymbol"><tspan y="-281.509" x="21.005">&#x2014;</tspan></text>
<text fill="#eeeeee" xml:space="preserve" transform="matrix(1 0 -0 1 0 792)" font-size="10.998" font-family="Helvetica"><tspan y="-279.609" x="38.013 46.701425 52.805315 55.202878 61.306768 67.41065">Golang</tspan></text>
<text fill="#ffffff" xml:space="preserve" transform="matrix(1 0 -0 1 0 792)" font-size="25.994" font-family="TimesNewRomanPS" font-weight="bold"><tspan y="-245.31" x="16.413 30.995636 44.07062 52.674638 61.278654 67.77715 82.25581 96.734477 103.934818 111.135158 118.335498">Soft Skills</tspan></text>
<text fill="#dddddd" xml:space="preserve" transform="matrix(1 0 -0 1 0 792)" font-size="4.904" font-family="OpenSymbol"><tspan y="-229.493" x="21.005">&#x2014;</tspan></text>
<text fill="#eeeeee" xml:space="preserve" transform="matrix(1 0 -0 1 0 792)" font-size="10.998" font-family="ArialMT"><tspan y="-226.8" x="38.013 43.61098 49.71487 55.81876 65.101078 72.99764 79.10153 82.78586 88.28486 91.3753 98.76595 101.85639 109.75296 115.85685 121.96074 128.1526 134.25649 137.94083 144.04471 147.13515 149.53272 155.72458">Teamwork &#x0026; Cooperation</tspan></text>
<text fill="#dddddd" xml:space="preserve" transform="matrix(1 0 -0 1 0 792)" font-size="4.904" font-family="OpenSymbol"><tspan y="-211.493" x="21.005">&#x2014;</tspan></text>
<text fill="#eeeeee" xml:space="preserve" transform="matrix(1 0 -0 1 0 792)" font-size="10.998" font-family="ArialMT"><tspan y="-208.8" x="38.013 45.909566 52.101438 55.191877 61.295766 63.69333 66.0909 69.28032 77.86976 81.554088 83.95165 90.05554 96.15943 99.348857 105.45274">Detail Oriented</tspan></text>
<text fill="#dddddd" xml:space="preserve" transform="matrix(1 0 -0 1 0 792)" font-size="4.904" font-family="OpenSymbol"><tspan y="-193.493" x="21.005">&#x2014;</tspan></text>
<text fill="#eeeeee" xml:space="preserve" transform="matrix(1 0 -0 1 0 792)" font-size="10.998" font-family="ArialMT"><tspan y="-190.8" x="38.013 45.403657 49.087987 55.191877 61.295766 65.07908 71.07299 80.35531 83.44575 91.342319 97.534198 103.033199 105.43076 111.53465 117.63854 120.72898 128.11965 134.22353 137.31397 140.4044 146.50829 150.19263 156.38449">Program Design Patterns</tspan></text>
<text fill="#dddddd" xml:space="preserve" transform="matrix(1 0 -0 1 0 792)" font-size="4.904" font-family="OpenSymbol"><tspan y="-175.493" x="21.005">&#x2014;</tspan></text>
<text fill="#eeeeee" xml:space="preserve" transform="matrix(1 0 -0 1 0 792)" font-size="10.998" font-family="ArialMT"><tspan y="-172.8" x="38.013 45.21669 47.702238 53.102254 59.294126 65.39801 67.79558 70.88602 78.782588 84.974468 90.473468 92.87103 98.97492">Visual Design</tspan></text>
<text fill="#ffffff" xml:space="preserve" transform="matrix(1 0 -0 1 0 792)" font-size="25.994" font-family="TimesNewRomanPS" font-weight="bold"><tspan y="-138.699" x="16.413 33.776994 48.35963 62.838289 74.32764 87.40262 96.00664 103.20698 116.28196">Education</tspan></text>
<text fill="#dddddd" xml:space="preserve" transform="matrix(1 0 -0 1 0 792)" font-size="4.904" font-family="OpenSymbol"><tspan y="-122.91" x="21.005">&#x2014;</tspan></text>
<text fill="#eeeeee" xml:space="preserve" transform="matrix(1 0 -0 1 0 792)" font-size="10.998" font-family="ArialMT"><tspan y="-120.189" x="38.013 45.909566 52.101438 54.499 59.998 66.10189 69.78622 75.3732 77.77077 80.861209 86.36021 89.450649 95.554538 98.74396 101.8344 109.730968 115.834857 118.23242 120.62999 123.72043 129.9123 133.59664 139.70052 142.09809 148.20197 151.39139 154.48183 162.37839 168.48227 173.98126 176.37883">University of California, Davis</tspan></text>
<text fill="#dddddd" xml:space="preserve" transform="matrix(1 0 -0 1 0 792)" font-size="4.904" font-family="OpenSymbol"><tspan y="-104.91" x="21.005">&#x2014;</tspan></text>
<text fill="#eeeeee" xml:space="preserve" transform="matrix(1 0 -0 1 0 792)" font-size="10.998" font-family="ArialMT"><tspan y="-102.189" x="38.013 45.909566 52.101438 61.284769 67.38866 73.580539 76.670978 82.774868 86.45919 89.54963 96.940288 102.439289 104.83685 110.94074 117.04463 122.631618 128.62554 131.81496 140.99829 147.10218 149.49974 155.6916">Computer Science Major</tspan></text>
<text fill="#dddddd" xml:space="preserve" transform="matrix(1 0 -0 1 0 792)" font-size="4.904" font-family="OpenSymbol"><tspan y="-86.91" x="21.005">&#x2014;</tspan></text>
<text fill="#eeeeee" xml:space="preserve" transform="matrix(1 0 -0 1 0 792)" font-size="10.998" font-family="ArialMT"><tspan y="-84.189" x="38.013 43.61098 49.71487 55.21387 61.31776 64.408199 73.69051 79.7944 85.89829 92.00218 98.19406 104.29795 113.481288 119.673168 125.777057 128.8675 131.95793 141.24024 143.53882 149.73069 155.83457">Tech Management Minor</tspan></text>
<text fill="#dddddd" xml:space="preserve" transform="matrix(1 0 -0 1 0 792)" font-size="4.904" font-family="OpenSymbol"><tspan y="-68.91" x="21.005">&#x2014;</tspan></text>
<text fill="#eeeeee" xml:space="preserve" transform="matrix(1 0 -0 1 0 792)" font-size="10.998" font-family="ArialMT"><tspan y="-66.189" x="38.013 44.204874 47.29531 53.3992 56.48964 65.17806 70.67706 76.78095 80.46528 86.65716 88.95574 91.35331 94.54273 103.13217 109.73097">3.3 Overall GPA</tspan></text>
<text fill="#dddddd" xml:space="preserve" transform="matrix(1 0 -0 1 0 792)" font-size="4.904" font-family="OpenSymbol"><tspan y="-50.91" x="21.005">&#x2014;</tspan></text>
<text fill="#eeeeee" xml:space="preserve" transform="matrix(1 0 -0 1 0 792)" font-size="10.998" font-family="ArialMT"><tspan y="-48.189" x="38.013 44.204874 47.29531 53.3992 56.48964 64.38621 70.57809 76.68198 82.785869 86.47019 89.56063 97.54518 99.843769 105.43075 107.828319 113.32732 115.724887 121.82877 127.93266 131.12209 139.71152 146.31032">3.5 Upper Division GPA</tspan></text>
<text xml:space="preserve" transform="matrix(1 0 -0 1 0 792)" font-size="14.003" font-family="TimesNewRomanPSMT"><tspan y="-748.29" x="215.405 224.99706 232.18059 243.27097 250.4545 257.73606 261.82496 268.21034 273.1954 276.8782 284.97196 291.35734 295.44624 301.8316 309.11317 315.49855 321.8839 325.5667 332.84828 340.0318 347.31336 353.69874 358.38975 365.6713 370.55836 376.94374 384.22529 391.4088 397.7942 401.8831 408.26847 412.0493 422.4395 426.5284 430.6173 437.80085 441.58168 447.96705 455.2486 466.24098 473.52253 478.5076 484.89299 492.0765 498.46189 505.74345 511.33067 515.5175 522.7011 529.0865 532.8673 537.7544 545.036 549.1249 553.21377">Computer Science undergraduate with comprehensive full </tspan></text>
<text xml:space="preserve" transform="matrix(1 0 -0 1 0 792)" font-size="14.003" font-family="TimesNewRomanPSMT"><tspan y="-730.602" x="215.405 221.09023 225.17911 231.56447 238.04785 245.23139 249.01219 255.39756 262.5811 269.76463 276.15 281.13508 285.22398 291.60935 298.8909 305.27629 311.66166 315.44248 321.72984 329.01139 336.19493 339.97575 346.3611 350.14195 355.72917 359.91609 364.80314 372.0847 379.26823 386.54978 390.23258 395.21766 402.40119 409.68275 416.86628 424.14784 430.5332 434.6221 438.711 445.99256 453.1761 456.9569 461.0458 468.22935 472.01017 483.10057 489.48594 493.57484 500.85639 504.53919 510.92457 518.2062 525.3898 529.1706 533.25949 540.44308 547.7247 551.81356 558.1989 561.97976">stack experience and a strong foundation in math and logic. </tspan></text>
<text xml:space="preserve" transform="matrix(1 0 -0 1 0 792)" font-size="14.003" font-family="TimesNewRomanPSMT"><tspan y="-712.998" x="215.405 223.49874 229.8841 236.26946 243.55101 247.6399 254.82343 262.10499 265.78779 269.9747 277.15824 280.93907 288.1226 292.3095 296.3984 300.4873 304.5762 310.96159 317.34696 321.12779 332.21818 339.4017 343.18254 348.76976 356.0513 360.1402 364.2291 368.41603 374.10124 377.78404 384.1694 388.2583 392.03913 398.4245 402.20533 408.5907 415.77424 426.86463 434.04817 440.43354 447.7151 454.89863 458.67945 462.76835 470.0499 476.43528 480.52418 484.305 490.69038 497.07575 504.25929 508.0401 515.2237 521.6091 525.69796 532.97958 536.66238 547.7527 554.13809">Seeking to utilize my skills at a company that can help me </tspan></text>
<text xml:space="preserve" transform="matrix(1 0 -0 1 0 792)" font-size="14.003" font-family="TimesNewRomanPSMT"><tspan y="-695.31" x="215.405 226.49538 232.88074 236.96962 244.25118 249.23624 255.6216 259.30439 265.68977 271.37498 275.1558 281.54118 285.22398 290.90919 298.19075 303.0778 307.1667 317.55693 323.9423 328.92738 335.31275 338.99555 345.38093 352.66249 359.846 364.03294 371.21647 377.60185 383.9872 388.0901 391.8709">mature as a software engineer. </tspan></text>
<text xml:space="preserve" transform="matrix(1 0 -0 1 0 792)" font-size="25.994" font-family="TimesNewRomanPS" font-weight="bold"><tspan y="-666.907" x="214.413 231.777 244.85198 259.4346 270.92396 282.4133 289.61366 301.103 315.58168 327.071">Experience</tspan></text>
<text fill="#1c1c1c" xml:space="preserve" transform="matrix(1 0 -0 1 0 792)" font-size="11.991" font-family="Helvetica" font-weight="bold"><tspan y="-644.4" x="228.813 236.60717 239.98862 244.67711 248.6701 255.96063 262.63963 265.93714 269.3186 278.0001 284.67909 291.35807 294.65559 298.03706 302.03007 308.70906 312.00657 315.38804 322.67857 326.67158 333.35057 338.03904">Virtual Reality Intern</tspan></text>
<text xml:space="preserve" transform="matrix(1 0 -0 1 0 792)" font-size="18" font-family="Helvetica"><tspan y="-644.4" x="345.6"> </tspan></text>
<text fill="#111111" xml:space="preserve" transform="matrix(1 0 -0 1 0 792)" font-size="10.006" font-family="Helvetica"><tspan y="-644.4" x="350.589 356.18235 358.88398 364.47734 369.98063 372.68226 376.07429 378.86598 384.36927 387.0709 392.66426">6/18 - 8/18</tspan></text>
<text xml:space="preserve" transform="matrix(1 0 -0 1 0 792)" font-size="4.507" font-family="OpenSymbol"><tspan y="-630" x="233.405">&#x2014;</tspan></text>
<text fill="#333333" xml:space="preserve" transform="matrix(1 0 -0 1 0 792)" font-size="10.006" font-family="Helvetica"><tspan y="-628.299" x="250.413 259.7186 265.2219 268.61393 273.6169 279.1202 284.71357 287.4152 294.6195 296.82084 299.52247 305.02577 307.81745 314.42143 320.5251 327.12907 329.92076 336.52473 342.028 344.72966 350.323 353.71504 356.41667 361.91996 364.12129 369.62458 377.92955 383.43284 388.93614 391.7278 394.42945 397.22114 402.72444 405.5161 411.0194 416.5227 421.61576 423.717 429.31037 434.7136 437.50529 443.09864 448.60194 451.30357 456.80686 462.4002 467.9035 470.00477 472.2061 477.20909 482.80244 485.50407 487.70539 493.20869 498.71199 501.50367 507.00697 512.51028 518.01358 520.80526 525.89828 531.40158 536.40457 539.10617 544.6995 553.0045">Worked with STX Entertainment to design an application and custom </tspan></text>
<text fill="#333333" xml:space="preserve" transform="matrix(1 0 -0 1 0 792)" font-size="10.006" font-family="Helvetica"><tspan y="-616.904" x="250.413 255.50606 261.00938 269.31434 274.81764 278.20967 283.71296 286.41459 291.50764 297.01094 299.8026 305.3059 310.8092 313.6009 316.30253 321.80583 327.39918 330.1008 332.8925 340.0968 345.6001 351.1034 353.30473 358.808 361.5997 367.103 369.20426 371.40559 376.90888 384.1132 386.90489 392.40818 394.6095 397.91148 403.50483 408.5078 411.2995 416.70274 420.09477 425.1878 427.88945 430.68113 436.18443 438.9761 443.9791 446.18043 451.68373 458.88804 461.67973 464.38136 469.88465 475.478 478.17964 483.27268 485.37394 488.6759 491.4676 497.06095 502.56425 504.6655 507.45719 510.75917 516.35256 521.85586 523.9571 526.1584 528.9501 533.95309 536.74478 541.74777 547.25106 552.75436 555.546 561.0493 566.5526 569.3443">camera setup that would allow directors to view the virtual reality content </tspan></text>
<text fill="#333333" xml:space="preserve" transform="matrix(1 0 -0 1 0 792)" font-size="10.006" font-family="Helvetica"><tspan y="-605.509" x="250.413 253.20468 258.70799 264.21128 269.30433 272.00596 279.21028 284.80363 288.1056 293.6089 296.40058 301.40357 304.7956 310.2989 315.8022 318.59388 320.7952 326.2985 331.8018 334.59349 336.69474 342.2881 344.98973 348.2917 353.88505 359.38835 361.58967 364.2913 367.08299 369.18424 377.4892 382.9925 385.78419 387.88545 393.4788 396.27049 401.77378 404.4754 409.4784 411.67973 415.07176 417.86344 423.36674 428.87004 430.97129 433.76298 437.155 442.6583 448.1616 450.3629 452.46418 455.25587 460.25886 463.05055 468.55384 474.05714 479.15019 481.25144 484.64347 490.14677 495.65007 503.95503 509.4583 515.0517">they were creating in real time in a virtual reality environment</tspan></text>
<text xml:space="preserve" transform="matrix(1 0 -0 1 0 792)" font-size="25.994" font-family="TimesNewRomanPS" font-weight="bold"><tspan y="-571.408" x="214.413 233.28464 244.77399 256.26335 267.7527 282.33534 290.93934 297.43785 313.39817 324.39366 337.39067 346.07267 357.562 369.05137 377.73338">Recent Projects</tspan></text>
<text fill="#1c1c1c" xml:space="preserve" transform="matrix(1 0 -0 1 0 792)" font-size="11.991" font-family="Helvetica" font-weight="bold"><tspan y="-551.991" x="228.813 236.89495 243.57393 250.25292 257.54344 262.2319 268.9109 272.29237 280.27836 286.95735 293.74424 300.42323 309.8002 317.09074 321.7792 329.06974 332.36726 342.35575 349.03474 356.4212 363.1002 370.39073 377.0697">Secure Password Manager</tspan></text>
<text fill="#111111" xml:space="preserve" transform="matrix(1 0 -0 1 0 792)" font-size="14.003" font-family="Helvetica" font-weight="bold"><tspan y="-551.991" x="382.11"> </tspan></text>
<text fill="#111111" xml:space="preserve" transform="matrix(1 0 -0 1 0 792)" font-size="10.006" font-family="Helvetica"><tspan y="-551.991" x="386.107 391.6103 394.31193 399.90528 405.40858 408.1102 411.50224 414.2939 419.7972 425.3005 428.0922 433.5955">4/20 - 10/20</tspan></text>
<text xml:space="preserve" transform="matrix(1 0 -0 1 0 792)" font-size="4.989" font-family="OpenSymbol"><tspan y="-538.413" x="229.805">&#x2014;</tspan></text>
<text fill="#333333" xml:space="preserve" transform="matrix(1 0 -0 1 0 792)" font-size="10.006" font-family="Helvetica"><tspan y="-536.797" x="246.813 254.8078 260.00093 265.6943 269.1864 274.47956 280.0729 287.46736 290.3591 293.3509 299.04429 304.73768 307.62944 313.3228 319.0162 324.20933 329.9027 332.1941 337.88749 343.58088 351.9759 357.66929 363.36268 366.25444 369.24623 374.9396 377.83137 380.7231 386.4165 389.30827 395.00166 400.69505 403.0865 408.67985 414.37324 420.06663 422.95838 428.65177 434.34516 439.53828 444.73139 452.12583 457.8192 461.3113 467.0047 469.9965 478.3915 484.0849 489.7783 495.47169 501.16508 506.75843 515.25357 520.94699 526.6404 529.5321 532.5239 537.61697 542.9101 548.1032 550.99496 556.68838 565.08346">Oversaw the development of a unique password management system </tspan></text>
<text fill="#333333" xml:space="preserve" transform="matrix(1 0 -0 1 0 792)" font-size="10.006" font-family="Helvetica"><tspan y="-525.402" x="246.813 249.80481 255.49823 261.19163 264.08338 266.97514 272.66853 274.9599 277.35136 282.9447 290.33915 295.53227 298.52406 304.1174 309.41056 315.10395 318.59605 323.78916 326.6809 329.6727 335.3661 338.25785 343.45097 349.14436 354.33747 360.03086 363.52296 369.21635 371.50773 376.70085 379.69264 385.28599 390.97938 393.97117 399.66456 403.15666 406.0484 409.0402 414.63356 420.32695 422.71839 426.21049 429.10224 434.29536 437.8875 443.48088 449.17427 454.86766 460.56105 463.55284 465.8442 471.5376 473.82899 479.0221 481.91386 484.90565 488.39775 494.09114 502.5862 505.47798 511.17137 514.06307 519.25619 524.9496 533.34469 539.0381 544.7315 547.7233 553.3167 556.21847 559.21029">that allows users to securely enter their credentials from a computer, </tspan></text>
<text fill="#333333" xml:space="preserve" transform="matrix(1 0 -0 1 0 792)" font-size="10.006" font-family="Helvetica"><tspan y="-514.006" x="246.813 250.40517 256.09858 261.79197 267.3853 270.97749 276.67088 278.96226 284.65565 289.84877 295.04188 297.93363 303.627 306.6188 309.51057 315.20396 320.89735 326.09046 328.9822 337.37724 343.07063 345.46208 352.75645 358.44984 362.042 367.73539 370.62715 376.32054 382.01393 384.90568 387.19706">regardless of any malware on it</tspan></text>
<text xml:space="preserve" transform="matrix(1 0 -0 1 0 792)" font-size="4.989" font-family="OpenSymbol"><tspan y="-501.307" x="229.805">&#x2014;</tspan></text>
<text fill="#333333" xml:space="preserve" transform="matrix(1 0 -0 1 0 792)" font-size="10.006" font-family="Helvetica"><tspan y="-499.691" x="246.813 254.20745 259.90086 265.09397 270.78736 273.07875 278.77214 284.4655 290.1589 295.8523 298.74406 304.43745 307.3292 315.82429 318.11567 323.30879 326.90095 332.4943 337.78746 343.48085 346.97294 352.16606 354.45744 359.65055 365.34394 368.2357 373.92909 377.52125 382.71437 388.40776 390.69914 393.59089 399.28428 404.4774 407.46919 413.06254 416.6547 422.34809 425.23985 430.93324 436.62663 441.81974 447.01286 452.70625 458.39964 464.09303 466.98478 472.1779 477.87129 483.56468 488.75779 491.04917 496.34233 499.23408 501.52546 507.21885 512.91226 515.80398 521.4974 524.3891 527.3809 533.07437 535.96609 541.6595 547.3529 553.0463 558.6397 561.63156 567.32498 569.61636">Developed a microservice architecture backend consisting of a handful </tspan></text>
<text fill="#333333" xml:space="preserve" transform="matrix(1 0 -0 1 0 792)" font-size="10.006" font-family="Helvetica"><tspan y="-488.296" x="246.813 252.50643 255.49823 258.38999 263.5831 269.2765 272.7686 277.9617 280.35316 285.54627 291.23966 296.43278 299.32453 306.71897 310.21107 312.50245 315.49424 318.386 324.07939 329.77278 332.66453 334.9559 340.6493 343.64109 346.53285 353.8272 360.62129 366.72496 369.6167 377.01115 382.70454 386.19664 391.89 394.78178 400.47517 406.16856 411.86195 414.7537 422.14814 427.84153 433.5349 439.2283 442.12007 447.31318">of services written in .NET Core and Node JS</tspan></text>
<text xml:space="preserve" transform="matrix(1 0 -0 1 0 792)" font-size="4.989" font-family="OpenSymbol"><tspan y="-475.597" x="229.805">&#x2014;</tspan></text>
<text fill="#333333" xml:space="preserve" transform="matrix(1 0 -0 1 0 792)" font-size="10.006" font-family="Helvetica"><tspan y="-474.009" x="246.813 254.20745 259.40058 265.09397 270.78736 273.6791 281.07356 286.76695 291.96006 297.15318 302.84657 306.33866 309.33045 316.62483 322.3182 330.8133 336.50669 342.20008 347.3932 352.98655 355.97834 358.8701 364.56349 367.45524 372.64836 378.34175 384.03514 387.02693 392.7203 395.0117 400.70509 406.29844 409.8906 412.18199 417.3751 423.06849 425.96025 431.65364 437.34703 443.0404 446.0322 451.12525 456.4184 462.1118 467.3049 472.89826 476.49043 482.1838 487.8772 490.16859 495.3617 501.05509 503.94685 509.64024 511.9316 514.32308">Used Docker Compose to containerize and synchronize all </tspan></text>
<text fill="#333333" xml:space="preserve" transform="matrix(1 0 -0 1 0 792)" font-size="10.006" font-family="Helvetica"><tspan y="-462.586" x="246.813 255.30809 257.59947 262.79258 266.38475 271.9781 277.27125 282.96464 286.45674 291.64985 293.94123 299.13435 304.82774 310.02085 313.01264 315.9044 321.59779 324.48954 330.18293 332.4743 334.86576 340.4591 347.85356 350.84535 356.53874 359.43049 365.12388 370.71723 374.3094 377.20115 382.89454 388.58793 393.78105 399.47444 401.7658 407.4592 413.1526 418.84599 422.33808 427.5312 430.52299 433.41474 439.10813 441.99989 445.49198 451.18537 456.87876 459.7705 462.7623 468.4557 474.14909 477.04084 482.73423 488.4276 493.62074 498.81385 504.50724 510.20063 515.89407 518.78579 526.1802 528.47158 531.3633 537.0567 540.0485 545.6419">microservices to allow other developers to run the backend with 1 </tspan></text>
<text fill="#333333" xml:space="preserve" transform="matrix(1 0 -0 1 0 792)" font-size="10.006" font-family="Helvetica"><tspan y="-451.191" x="246.813 252.10619 257.7996 266.1946 274.58964 280.28303 285.9764">command</tspan></text>
<text xml:space="preserve" transform="matrix(1 0 -0 1 0 792)" font-size="4.989" font-family="OpenSymbol"><tspan y="-438.491" x="229.805">&#x2014;</tspan></text>
<text fill="#333333" xml:space="preserve" transform="matrix(1 0 -0 1 0 792)" font-size="10.006" font-family="Helvetica"><tspan y="-436.904" x="246.813 253.60709 259.30049 262.19224 265.18403 270.8774 276.47077 279.46257 284.65568 289.8488 295.54219 301.23558 306.92897 312.62236 314.91374 320.60713 326.3005 328.6019 335.49604 342.19007 345.18186 348.0736 353.767 359.4604 365.15379 370.84718 376.54057 378.83195 384.52534 387.41709 390.40888 393.30064 398.99403 404.18714 407.0789 409.37028 415.06367 420.75706 423.6488 429.3422 434.5353 436.92677 442.62016 448.31355 451.2053 457.89933 463.5927 468.88587 471.77763 480.17265 485.86604 491.55943 494.45118 497.44297 503.13636 506.0281 511.7215 517.4149 519.7063 525.3997 528.29147 530.79299 533.6847 539.3781 545.07156 547.96328 553.6567 559.3501 565.0435">Set up scheduled API endpoint testing using Postman to help find bugs</tspan></text>
<text xml:space="preserve" transform="matrix(1 0 -0 1 0 792)" font-size="4.989" font-family="OpenSymbol"><tspan y="-424.205" x="229.805">&#x2014;</tspan></text>
<text fill="#333333" xml:space="preserve" transform="matrix(1 0 -0 1 0 792)" font-size="10.006" font-family="Helvetica"><tspan y="-422.702" x="246.813 254.20745 257.7996 263.39295 269.08634 271.9781 277.67149 283.36488 286.35667 292.05006 294.9418 300.6352 304.1273 309.82069 317.21513 322.40824 328.10163 331.59373 334.48548 340.17887 345.37199 348.36378 353.95713 359.6505 364.84364 367.23509 372.92848 378.62187 381.5136 384.40538 390.09877 392.9905 398.18363 403.877 412.3721 420.76713 426.4605 432.1539 434.44529 439.73844 445.3318 448.32359 454.01698 456.90873 464.30317 466.59455 469.4863 475.1797 478.07145 483.76484 489.45823 492.95033 495.9421 501.6355 507.3289 512.52206 517.71517 523.40859 529.102 534.7954 537.68716 543.38058 548.57369 550.86508 556.5585 562.2519">Created a browser extension to communicate with our backend using </tspan></text>
<text fill="#333333" xml:space="preserve" transform="matrix(1 0 -0 1 0 792)" font-size="10.006" font-family="Helvetica"><tspan y="-411.307" x="246.813 252.10619 257.7996 263.39295 265.68434 268.07579 270.36717 276.06056 278.9523 284.24546">vanilla JS</tspan></text>
<text xml:space="preserve" transform="matrix(1 0 -0 1 0 792)" font-size="4.989" font-family="OpenSymbol"><tspan y="-398.494" x="229.805">&#x2014;</tspan></text>
<text fill="#333333" xml:space="preserve" transform="matrix(1 0 -0 1 0 792)" font-size="10.006" font-family="Helvetica"><tspan y="-396.992" x="246.813 256.3087 261.90205 265.4942 270.68733 276.3807 282.0741 284.96586 292.3603 294.65168 297.54344 303.23683 306.2286 311.82197 314.81376 320.4071 326.1005 329.69267 334.88578 337.77754 343.47093 349.1643 352.05607 355.04786 360.74125 366.3346 369.3264 376.62077 382.31416 388.00755 393.20066 396.0924 399.0842 406.47865 412.17204 415.06379 417.35517 422.54829 428.24168 431.13343 436.8268 442.5202">Worked with others on the React Native app</tspan></text>
<text xml:space="preserve" transform="matrix(1 0 -0 1 0 792)" font-size="4.989" font-family="OpenSymbol"><tspan y="-384.293" x="229.805">&#x2014;</tspan></text>
<text fill="#333333" xml:space="preserve" transform="matrix(1 0 -0 1 0 792)" font-size="10.006" font-family="Helvetica"><tspan y="-382.706" x="246.813 254.20745 259.90086 265.59425 268.486 271.9781 274.36955 280.06294 285.75633 288.64808 294.34147 300.03486 302.9266 308.62 313.8131 319.5065 322.9986 325.89036 331.58375 337.27714 340.26893 345.9623 351.6557 357.24906 360.24085 362.53224 364.8236 370.517 376.2104 381.4035 384.29527 389.98866 392.98045 395.8722 401.0653 406.7587 412.4521 418.14549 421.03724 423.929 429.62239 435.31578 441.00917 443.9009 449.5943 455.2877 460.4808 466.1742 474.66929 480.26264 485.95603 488.9478 494.6412 500.3346 503.22636 508.91975 511.21113 513.5025 515.90396 522.7981 529.4921 532.48397">Contributed over 10,000 lines of code, and documented all API </tspan></text>
<text fill="#333333" xml:space="preserve" transform="matrix(1 0 -0 1 0 792)" font-size="10.006" font-family="Helvetica"><tspan y="-371.31" x="246.813 252.50643 258.19984 263.89323 269.5866 275.28 277.57139 283.26478 286.15653 291.44969 294.34144 297.2332 302.92658 306.41868 309.41047 312.30223 317.9956 323.689 326.58076 332.27415 337.96754 343.16065 348.35377 354.04716 359.74055 365.43394 368.32569">endpoints for the backend. </tspan></text>
<text fill="#1c1c1c" xml:space="preserve" transform="matrix(1 0 -0 1 0 792)" font-size="11.991" font-family="Helvetica" font-weight="bold"><tspan y="-355.408" x="228.813 237.69834 245.0848 255.96063 262.84349 272.32838 279.81077 284.59516 291.478 295.0633 303.8407 310.72355 314.21293 321.6953 325.1847 336.56419 343.35108 350.83348 354.41877 362.59663 369.47947 374.26387 381.1467 388.6291 395.51194">Homework Help Web Scraper</tspan></text>
<text fill="#1c1c1c" xml:space="preserve" transform="matrix(1 0 -0 1 0 792)" font-size="14.003" font-family="Helvetica" font-weight="bold"><tspan y="-355.408" x="400.706"> </tspan></text>
<text xml:space="preserve" transform="matrix(1 0 -0 1 0 792)" font-size="10.006" font-family="Helvetica"><tspan y="-355.408" x="404.901 410.5944 416.18775 419.17955 424.87294">12/19</tspan></text>
<text xml:space="preserve" transform="matrix(1 0 -0 1 0 792)" font-size="4.989" font-family="OpenSymbol"><tspan y="-341.688" x="229.805">&#x2014;</tspan></text>
<text fill="#333333" xml:space="preserve" transform="matrix(1 0 -0 1 0 792)" font-size="10.006" font-family="Helvetica"><tspan y="-340.186" x="246.813 253.60709 259.30049 261.59187 263.9833 266.87507 269.7668 275.4602 278.35197 285.7464 291.4398 297.13319 300.02494 305.71833 311.4117 317.1051 319.99687 322.98866 328.582 334.2754 337.26719 340.15895 345.85234 348.1437 350.4351 356.12849 363.52293 368.71604 371.6078 377.30119 382.4943 388.18769 391.77986 396.97297 399.86473 402.75648 408.44987 411.3416 413.8431 416.73484 422.42823 428.1216 431.01338 436.30653 441.89988 444.29133 449.9847 452.87648 455.16786 460.86125 466.55464 471.74775 474.73954 477.6313 483.32469 486.21644 491.90983 497.6032 505.99824 511.69163 519.08609 524.7795 528.27157 533.46469 536.4565 542.04989 545.64199">Built a web app that allows users to find solutions to homework or </tspan></text>
<text fill="#333333" xml:space="preserve" transform="matrix(1 0 -0 1 0 792)" font-size="10.006" font-family="Helvetica"><tspan y="-328.791" x="246.813 252.50643 256.09858 261.79197 266.98509 269.87684 272.1682 277.36134 283.05473 285.94648 291.63987 295.23204 300.9254 306.6188 308.9102 314.60359 322.9986 328.1917 331.1835 334.07527 339.76866 345.46205 348.3538 351.24555 356.93894 360.5311 366.12446 369.11625 374.80964 377.101 382.7944 388.4878 394.18119 399.87458 402.76634 408.45973 414.1531 419.8465 422.13789 427.83128 433.52467 436.4164 439.30818 445.00157 450.69496 453.5867 459.2801 464.97349 470.1666 477.56105 483.25444 485.5458 487.8372 493.13035 496.0221 501.71549 504.60725 507.499 514.89346 520.58688 526.2803 531.9737 537.6671 540.55886 545.75198 551.4454">practice problems that are hidden behind the paywalls of Chegg.com</tspan></text>
<text xml:space="preserve" transform="matrix(1 0 -0 1 0 792)" font-size="4.989" font-family="OpenSymbol"><tspan y="-316.006" x="229.805">&#x2014;</tspan></text>
<text fill="#333333" xml:space="preserve" transform="matrix(1 0 -0 1 0 792)" font-size="10.006" font-family="Helvetica"><tspan y="-314.504" x="246.813 254.20745 259.40058 265.09397 270.78736 273.6791 276.6709 283.96528 290.75935 296.863 299.75477 307.1492 312.74256 316.33473 322.0281 324.91987 327.8116 333.505 336.39677 341.58988 345.18205 350.87544 356.56883 359.46058 365.15397 368.04573 373.7391 376.63087 382.32426 388.01765 393.21076 398.40388 404.09727 409.79066 415.48405 418.3758 421.36759 427.06098 432.65434 435.64613 438.53788 443.731 449.42439 455.11778 458.00953 463.20265 468.39576 471.9879 477.6813 483.27467 488.96806 491.95985 499.2542 504.9476 510.641 516.3344 522.02786 524.91958 530.1127 535.8061 544.3012 547.19296 549.4843 555.17776 558.16958 561.6616 567.35507 573.04849 575.33987">Used .NET Core to create a backend that can scrape Chegg.com in real </tspan></text>
<text fill="#333333" xml:space="preserve" transform="matrix(1 0 -0 1 0 792)" font-size="10.006" font-family="Helvetica"><tspan y="-303.109" x="246.813 249.80481 252.09618 260.59129 266.18464 269.17643 274.8698 280.46318 286.15657 289.14836 292.64045 298.33384 301.2256 306.91899 310.41108 316.10447 319.09626 321.988 327.6814 333.3748 336.26655 341.45967 347.15306 349.44444 355.13783 358.02958 360.42103 366.1144 371.8078 377.00093 379.89268 382.78443 388.4778 391.4696 394.36137 400.05476 405.74815 408.6399 413.833 416.1244 418.51585 424.20924 429.90263 432.79438">time and return the solutions to the client.</tspan></text>
<text fill="#1c1c1c" xml:space="preserve" transform="matrix(1 0 -0 1 0 792)" font-size="11.991" font-family="Helvetica" font-weight="bold"><tspan y="-287.206" x="228.813 237.69834 244.48523 251.36806 255.5529 262.43577 269.82225 274.70259 281.58543 289.0678 293.15675 296.64613 303.93666 307.42604 314.90843 322.3908 329.27366">Restaurant Tinder</tspan></text>
<text xml:space="preserve" transform="matrix(1 0 -0 1 0 792)" font-size="14.003" font-family="Helvetica" font-weight="bold"><tspan y="-287.206" x="334.29"> </tspan></text>
<text xml:space="preserve" transform="matrix(1 0 -0 1 0 792)" font-size="10.006" font-family="Helvetica"><tspan y="-287.206" x="338.513 344.2064 347.09815 352.79154 358.48493 361.37669 364.86878 367.86058 373.55397 376.4457 382.1391">7/19 - 8/19</tspan></text>
<text xml:space="preserve" transform="matrix(1 0 -0 1 0 792)" font-size="4.507" font-family="OpenSymbol"><tspan y="-273.6" x="229.805">&#x2014;</tspan></text>
<text fill="#333333" xml:space="preserve" transform="matrix(1 0 -0 1 0 792)" font-size="10.006" font-family="Helvetica"><tspan y="-272.013" x="246.813 254.20745 257.7996 263.39295 269.08634 271.9781 277.67149 283.36488 286.35667 292.05006 294.9418 302.23619 307.92958 313.62297 316.61476 322.30815 328.00154 333.59489 336.58668 339.47843 345.1718 350.8652 353.75697 356.6487 362.3421 364.63349 367.02494 372.71833 380.0127 385.30586 388.1976 393.891 396.78276 402.47615 405.96824 411.66163 417.355 423.0484 425.94017 431.63356 434.5253 437.5171 440.40885 443.90095 446.2924 451.98579 457.57914 463.27253 468.56568 471.45744 474.34919 480.04258 482.93434 488.62773 494.3211 499.51423 501.8056 507.499 513.1924 516.1842 521.8776 527.471 530.4628 537.7572 543.4506 549.14407 552.13589">Created a web app that allows a group of friends to decide on what </tspan></text>
<text fill="#333333" xml:space="preserve" transform="matrix(1 0 -0 1 0 792)" font-size="10.006" font-family="Helvetica"><tspan y="-260.504" x="246.813 252.50643 258.19984 263.89323 267.3853 273.0787 278.27183 281.2636 284.7557 290.4491 295.6422 298.53398 304.22737 309.92076 313.41285 319.10624 324.79963 327.7914 330.68318 333.57493 339.2683 342.16007 347.85346 353.54685 356.53865 359.4304 365.12379 368.01554 370.9073 376.60069 382.29408 387.48719 393.18058 398.87397 401.76573 407.4591 413.1525 416.04426 419.03605 424.6294 430.32279 432.71424 436.20634 439.09809 444.2912 449.9846 453.57676 457.06886 462.76225 468.45564 471.34739 474.23915 476.63059 482.32398 487.5171 493.21049 496.10224 498.39363 504.087">nearby restaurant to eat at based on their current location</tspan></text>
<text xml:space="preserve" transform="matrix(1 0 -0 1 0 792)" font-size="4.507" font-family="OpenSymbol"><tspan y="-247.89" x="229.805">&#x2014;</tspan></text>
<text fill="#333333" xml:space="preserve" transform="matrix(1 0 -0 1 0 792)" font-size="10.006" font-family="Helvetica"><tspan y="-246.302" x="246.813 256.3087 259.80079 265.49418 268.38594 274.0793 276.97108 282.66447 285.5562 291.2496 296.943 302.1361 307.32923 313.0226 318.716 324.4094 327.30116 332.99455 338.18766 340.5791 346.2725 351.96589 354.85765 362.25209 367.94548 373.53883 379.2322 382.224 387.4171 394.11116 397.10295 399.9947 405.68809 411.38148 414.27323 417.16499 422.3581 428.05149 433.74488 436.13633 441.72969 444.72148 450.41487 456.0082 461.30137 464.1931 467.08488 475.57997 481.27336 483.56474 486.45649 488.74787 494.44126 496.8327 502.5261 505.41786 511.11125 516.8046 525.1997 530.8931 533.78488 537.37698 543.0704 548.7638 557.1589 562.352">Wrote a backend using Node JS that could host multiple game rooms </tspan></text>
<text fill="#333333" xml:space="preserve" transform="matrix(1 0 -0 1 0 792)" font-size="10.006" font-family="Helvetica"><tspan y="-234.907" x="246.813 252.50643 258.19984 263.89323 266.885 271.97807 277.2712 282.9646 288.1577 293.75108 297.34324 303.03663 308.62998 311.02143 316.21455 321.90794 324.79969 330.49308 336.18647 344.58149 350.27488 353.26667 358.45979 361.35154 367.04493 369.93669 375.63008 378.62187 384.2152 392.7103 398.4037 404.09709 409.79048 414.98359 417.87535 420.7671 426.46049 431.6536 437.347 440.93916 446.13227 449.02403 456.41847 458.70985 461.6016 467.29499 469.68644 475.2798 478.27159 483.86494 486.85673 490.34883 496.0422 501.7356 510.1306 513.12246">and synchronize game state amongst users within a room. </tspan></text>
<text xml:space="preserve" transform="matrix(1 0 -0 1 0 792)" font-size="4.507" font-family="OpenSymbol"><tspan y="-222.293" x="229.805">&#x2014;</tspan></text>
<text fill="#333333" xml:space="preserve" transform="matrix(1 0 -0 1 0 792)" font-size="10.006" font-family="Helvetica"><tspan y="-220.592" x="246.813 254.20745 259.40058 265.09397 270.78736 273.6791 280.183 285.97648 291.56983 293.96128 299.1544 302.04615 304.9379 310.6313 313.62309 318.8162 322.3083 328.00169 333.69508 336.58683 342.2802 345.17198 350.86537 353.85716 358.9502 361.34165 369.73667 375.43006 377.8215 383.41487 386.40666 392.10005 397.79344 403.48683 406.37858 412.07197 417.76536 422.95848 425.85023 431.5436 437.237 440.12876 442.42015 447.7133 450.60505 453.4968 456.9889 462.68229 468.37568 471.36747 474.25923 479.9526 485.646 491.3394 494.23115 497.1229 502.81629 508.50968 511.40144 514.29318 521.68759 527.381 530.9731 536.1662 541.3593 544.25106 551.64547 557.23886 559.63027 561.92166">Used Vuejs to create a simple and aesthetic front end that works well </tspan></text>
<text fill="#333333" xml:space="preserve" transform="matrix(1 0 -0 1 0 792)" font-size="10.006" font-family="Helvetica"><tspan y="-209.197" x="246.813 252.50643 257.7996 261.2917 266.98509 272.1782 277.3713 280.26307 285.95646 288.24784 290.63929 293.53105 299.22444 304.91783 310.11094 312.4023 317.59544 323.28883">across all devices</tspan></text>
<text fill="#1c1c1c" xml:space="preserve" transform="matrix(1 0 -0 1 0 792)" font-size="11.991" font-family="Helvetica" font-weight="bold"><tspan y="-193.294" x="228.813 237.69834 245.0848 255.96063 262.84349 266.33287 274.5107 281.39356 286.2739 293.0608 299.94364">Home Server</tspan></text>
<text xml:space="preserve" transform="matrix(1 0 -0 1 0 792)" font-size="14.003" font-family="Helvetica" font-weight="bold"><tspan y="-193.294" x="305.008"> </tspan></text>
<text xml:space="preserve" transform="matrix(1 0 -0 1 0 792)" font-size="10.006" font-family="Helvetica"><tspan y="-193.294" x="309.09 314.7834 317.67515 323.36854 329.06193 332.55403 338.2474 343.9408 346.9326 352.62599">9/17-10/20</tspan></text>
<text xml:space="preserve" transform="matrix(1 0 -0 1 0 792)" font-size="4.507" font-family="OpenSymbol"><tspan y="-179.688" x="229.805">&#x2014;</tspan></text>
<text fill="#333333" xml:space="preserve" transform="matrix(1 0 -0 1 0 792)" font-size="10.006" font-family="Helvetica"><tspan y="-177.987" x="246.813 255.30809 261.0015 263.29289 268.98628 271.87803 277.5714 279.8628 285.55619 288.54798 294.24137 297.13313 302.8265 308.5199 312.012 317.2051 322.8985 328.5919 334.28529 336.57667 339.4684 341.85987 344.15126 349.84465 355.53804 360.73115 363.6229 368.816 374.5094 378.10157 383.29469 388.88804 392.4802 395.37196 398.86405 404.55744 410.25083 415.9442 418.2356 423.929 429.62239 432.61418 439.90855 445.60194 451.29533 456.9887 459.88047 465.57386 468.56565 475.25968 480.95307 484.44517 489.7383 495.33168">Maintain a personal linux server running Ubuntu Server</tspan></text>
<text xml:space="preserve" transform="matrix(1 0 -0 1 0 792)" font-size="4.507" font-family="OpenSymbol"><tspan y="-165.487" x="229.805">&#x2014;</tspan></text>
<text fill="#333333" xml:space="preserve" transform="matrix(1 0 -0 1 0 792)" font-size="10.006" font-family="Helvetica"><tspan y="-163.786" x="246.813 254.20745 259.90086 265.59425 268.09574 270.98747 276.68086 282.37425 285.86634 291.55973 297.2531 300.14488 305.83827 308.73 313.92314 322.4182 328.1116 330.40299 332.69438 335.68617 339.17826 344.87165 347.16304 352.8564 356.3485 361.54164 364.53343 369.72654 375.41993 377.7113 383.4047 391.7997 397.4931 400.38487 403.37666 409.07005 411.9618 417.1549 420.04667 425.74006 429.3322 435.0256 437.91737 443.61076 445.90214 448.1935 451.1853 456.37843 459.8705 462.1619 465.1537 467.44508 472.63819 478.33158 480.62297 483.61476 489.30815 494.9015 497.89329">Configured a small raid-z volume to store all critical data</tspan></text>
<text xml:space="preserve" transform="matrix(1 0 -0 1 0 792)" font-size="4.507" font-family="OpenSymbol"><tspan y="-151.2" x="229.805">&#x2014;</tspan></text>
<text fill="#333333" xml:space="preserve" transform="matrix(1 0 -0 1 0 792)" font-size="10.006" font-family="Helvetica"><tspan y="-149.499" x="246.813 253.60709 259.30049 262.19224 265.18403 270.8774 276.47077 279.46257 286.75694 292.45033 294.84178 300.53517 305.72828 308.62004 314.31343 320.0068 325.7002 328.59196 337.08705 342.6804 345.07185 347.9636 350.25498 355.94837 358.23976 363.93315 366.92494 374.2193 379.9127 385.1058 390.39897 395.9923 399.58448 402.47624 407.66935 409.96073 413.5529 416.44465 422.13804 427.83143 430.1228 433.01457 438.70796 444.40135 447.2931 454.68754 460.38093 463.87303 469.06614 474.35929 477.25105 480.1428 485.83619 488.72795 494.42134 500.11473 503.00648 508.69987 514.39328 516.78469 522.4781 525.3698 528.26156 533.95498 536.8467 542.5401 546.03219 551.7256 557.419 563.1124 566.7045 568.9959 574.189">Set up Nginx and multiple Docker virtual networks to be able to properly </tspan></text>
<text fill="#333333" xml:space="preserve" transform="matrix(1 0 -0 1 0 792)" font-size="10.006" font-family="Helvetica"><tspan y="-138.104" x="246.813 250.40517 256.09858 259.59068 265.28407 270.97746 273.8692 279.5626 282.45436 285.94645 291.63984 297.33323 303.0266 308.72 313.91313 316.80488 322.09803 324.98979 333.48487 339.07823 344.7716 350.465 353.35676 356.34855 362.04194 365.53404 368.42579 373.6189 379.3123 382.80439 385.79618 391.48957 393.78096 399.47434 402.3661 407.5592 413.2526 418.94599 424.63938 430.33277 438.82786 444.4212 446.81266 452.406 457.69917 460.5909 463.48268 469.17607 472.16786 475.0596 480.753 486.44639 488.73777 492.22987 495.22166 500.815 504.40718 510.10057 515.6939 521.3873 524.97946 527.87118 533.0643 538.7577 544.4511 547.34286 553.03628 555.32766 561.02108 566.7145 570.3066">reroute requests made for certain subdomains to their proper containers</tspan></text>
<text xml:space="preserve" transform="matrix(1 0 -0 1 0 792)" font-size="4.507" font-family="OpenSymbol"><tspan y="-125.49" x="229.805">&#x2014;</tspan></text>
<text fill="#333333" xml:space="preserve" transform="matrix(1 0 -0 1 0 792)" font-size="10.006" font-family="Helvetica"><tspan y="-123.789" x="246.813 254.20745 259.40058 265.09397 270.78736 273.6791 276.6709 282.3643 285.25605 290.94944 296.64283 301.83595 304.7277 307.61946 313.31285 315.70429 317.99568 320.88743 326.5808 332.2742 335.7663 340.9594 346.6528 352.3462 358.03959 360.33097 363.32276 369.01615 372.50825 378.20164 380.493 386.1864 391.37953 394.27128 399.4644 402.45619 405.34794 411.04133 416.23445 419.1262 426.52064 432.21403 434.5054 436.89686 439.7886 445.482 450.6751 453.56687 459.26026 462.75236 468.44575 474.13914 479.83253 485.5259 488.41767 494.11106 497.10285 502.6962 508.3896 513.5827 519.2761 524.96957 527.86129 533.5547 536.5465 542.2399 547.8333 551.4254">Used to host all personal projects, as well as around a dozen other </tspan></text>
<text fill="#333333" xml:space="preserve" transform="matrix(1 0 -0 1 0 792)" font-size="10.006" font-family="Helvetica"><tspan y="-112.394" x="246.813 252.50643 258.19984 263.89323 269.5866 271.878 277.57139 281.06349 284.05528 289.74867 295.44206 301.13545 306.82884 309.72059 314.9137 320.6071 326.30049 329.79258 334.9857 340.67909 343.57084 348.76396 354.45735 358.0495 363.2426 365.534 370.7271 376.4205">popular open source services</tspan></text>
<text fill="#1c1c1c" xml:space="preserve" transform="matrix(1 0 -0 1 0 792)" font-size="11.991" font-family="Helvetica" font-weight="bold"><tspan y="-96.491" x="228.813 237.49449 244.17348 248.16648 254.84546 259.53395 266.82447 270.20594 277.49647 284.17546 287.47297 296.15446 302.83345 309.51243 314.2009 320.87989 327.66679 331.56388 334.94535 342.23588">Asteroids Recreation</tspan></text>
<text xml:space="preserve" transform="matrix(1 0 -0 1 0 792)" font-size="14.003" font-family="Helvetica" font-weight="bold"><tspan y="-96.491" x="349.795"> </tspan></text>
<text xml:space="preserve" transform="matrix(1 0 -0 1 0 792)" font-size="10.006" font-family="Helvetica"><tspan y="-96.491" x="353.792 359.2953 361.99693 367.59028 373.09358 375.7952 379.18724 381.9789 387.4822 390.18385 395.7772">7/19 - 8/19</tspan></text>
<text xml:space="preserve" transform="matrix(1 0 -0 1 0 792)" font-size="4.507" font-family="OpenSymbol"><tspan y="-82.998" x="229.805">&#x2014;</tspan></text>
<text fill="#333333" xml:space="preserve" transform="matrix(1 0 -0 1 0 792)" font-size="10.006" font-family="Helvetica"><tspan y="-81.298" x="246.813 254.20745 259.90086 262.19224 267.88563 273.579 279.2724 282.16416 285.75633 291.4497 296.64283 300.13493 305.8283 311.5217 314.41346 320.10685 322.9986 325.89036 331.58375 337.27714 340.26893 345.9623 351.6557 360.05073 365.7441 368.14558 374.93965 380.13276 383.0245 388.7179 392.31007 398.00346 400.29484 405.98823 411.18135 414.0731 419.76649 425.45988 427.86134 434.6554 440.3488 446.04219 449.53428 455.22767 457.6191 463.21247 466.20426 468.49565 474.18904 477.08079 482.2739 487.9673 493.1604 498.8538 501.84559 507.43894 512.6321 515.0235 520.7169 526.41036 528.81179 535.60586 541.29928 546.9927 550.48477 556.17819 558.46957 564.16299">Helped recreate the game Asteroids on Android in Java using Android </tspan></text>
<text fill="#333333" xml:space="preserve" transform="matrix(1 0 -0 1 0 792)" font-size="10.006" font-family="Helvetica"><tspan y="-69.902" x="246.813 253.60709 256.49885 262.19224 267.88563 270.27708">Studio</tspan></text>
<text xml:space="preserve" transform="matrix(1 0 -0 1 0 792)" font-size="4.507" font-family="OpenSymbol"><tspan y="-57.288" x="229.805">&#x2014;</tspan></text>
<text fill="#333333" xml:space="preserve" transform="matrix(1 0 -0 1 0 792)" font-size="10.006" font-family="Helvetica"><tspan y="-55.587" x="246.813 249.80481 255.49823 258.38999 264.08338 269.77677 273.26887 278.96226 281.854 287.5474 293.24079 296.13255 301.32566 307.01905 312.21217 317.90556 321.4977 327.1911 329.48249 332.37425 338.06764 343.76103 346.0524 351.7458 356.9389 359.9307 363.4228 369.11619 372.60829 374.89967 380.59306 386.28645 389.27824 394.87159 400.56498 403.55677 409.15013 414.8435 420.03663 422.42808 428.12147 433.7148 436.7066 442.4 448.09339 450.98515 453.8769 459.57029 463.06239 468.75578 473.94889 476.94068 479.83244 485.52583 488.41758 493.6107 496.00215 501.5955 507.28889 512.9823 515.9741 521.66757 527.36099 530.2527 533.1444 538.8378 544.53128">Integrated several object-oriented design patterns to clean up the </tspan></text>
<text fill="#333333" xml:space="preserve" transform="matrix(1 0 -0 1 0 792)" font-size="10.006" font-family="Helvetica"><tspan y="-44.192" x="246.813 252.10619 257.7996 263.39295 269.08634 274.77973 280.4731 285.66624">codebase</tspan></text>
</g>
</g>
</g>
</svg>
