<svg width="210" height="174" viewBox="0 0 210 174" fill="none" xmlns="http://www.w3.org/2000/svg">
<path d="M203.845 66.8181H146.5L147.96 61.1797C148.871 59.0284 148.771 56.556 147.633 54.4584C146.275 51.9552 143.662 50.3999 140.814 50.3999H7.75903C4.9113 50.3999 2.29818 51.9552 0.940142 54.458C-0.197638 56.5551 -0.297717 59.0284 0.612835 61.1793L3.64145 72.8815C7.69914 88.5582 21.665 99.8199 37.6042 100.268C37.9627 100.278 38.322 100.283 38.6817 100.283H109.889C110.249 100.283 110.608 100.278 110.968 100.268C124.694 99.8822 136.952 91.4719 142.683 79.1319H203.843C207.243 79.1319 210 76.3752 210 72.975C210 69.5748 207.245 66.8181 203.845 66.8181ZM133.01 69.7959C130.319 80.195 121.112 87.664 110.624 87.9585C110.38 87.9655 110.136 87.9688 109.891 87.9688H38.6829C38.4381 87.9688 38.1932 87.9655 37.9504 87.9585C32.0966 87.7941 26.644 85.3934 22.4989 81.4981H51.1222C54.5224 81.4981 57.2791 78.7414 57.2791 75.3412C57.2791 71.941 54.5224 69.1843 51.1222 69.1843H15.4048L13.7301 62.7137H134.843L133.01 69.7959Z" fill="white"/>
<path d="M115.773 18.0093C113.342 15.2351 112.998 11.2544 114.916 8.10371L115.836 6.59295C117.082 4.5471 116.433 1.87864 114.386 0.6331C112.341 -0.612435 109.672 0.0364809 108.427 2.08232L107.507 3.59309C103.608 9.99672 104.308 18.0876 109.249 23.7262C111.414 26.1965 111.939 29.7268 110.587 32.72L108.178 38.0561C107.193 40.2389 108.163 42.8079 110.346 43.7934C110.925 44.0552 111.531 44.1789 112.128 44.1789C113.781 44.1789 115.359 43.2295 116.084 41.6257L118.493 36.2899C121.24 30.2055 120.173 23.0302 115.773 18.0093Z" fill="white"/>
<path d="M78.773 18.0093C76.342 15.2351 75.9976 11.2544 77.9161 8.10371L78.8357 6.59295C80.0815 4.5471 79.4326 1.87864 77.3865 0.6331C75.3406 -0.612435 72.6722 0.0364809 71.4266 2.08232L70.507 3.59309C66.608 9.99672 67.3083 18.0876 72.2492 23.7262C74.4138 26.1965 74.9393 29.7268 73.5875 32.72L71.1781 38.0561C70.1926 40.2389 71.1631 42.8079 73.3459 43.7934C73.9252 44.0552 74.5314 44.1789 75.1283 44.1789C76.7806 44.1789 78.3593 43.2295 79.0836 41.6257L81.4929 36.2899C84.2399 30.2055 83.1727 23.0302 78.773 18.0093Z" fill="white"/>
<path d="M40.773 18.0093C38.342 15.2351 37.9976 11.2544 39.9161 8.10371L40.8357 6.59295C42.0815 4.5471 41.4326 1.87864 39.3865 0.6331C37.3406 -0.612435 34.6722 0.0364809 33.4266 2.08232L32.507 3.59309C28.608 9.99672 29.3083 18.0876 34.2492 23.7262C36.4138 26.1965 36.9393 29.7268 35.5875 32.72L33.1781 38.0561C32.1926 40.2389 33.1631 42.8079 35.3459 43.7934C35.9252 44.0552 36.5314 44.1789 37.1283 44.1789C38.7806 44.1789 40.3593 43.2295 41.0836 41.6257L43.4929 36.2899C46.2399 30.2055 45.1727 23.0302 40.773 18.0093Z" fill="white"/>
<path d="M70.0992 107C70.7978 107.448 71.404 107.998 72.0718 108.48C78.1026 113.248 83.6299 118.515 88.0785 124.393C92.3833 130.082 95.6916 136.373 97.1606 143.016C97.9722 146.657 98.2394 150.392 97.7667 154.075C97.551 155.616 97.2326 157.156 96.6469 158.628C95.825 160.762 94.7463 162.836 93.2668 164.712C91.9929 166.33 90.4004 167.776 88.5614 168.947C86.5374 170.229 84.2258 171.167 81.8217 171.812C78.8319 172.613 75.6984 173.009 72.5752 173.224C68.8457 173.456 65.0957 173.499 61.3767 173.103C57.1644 172.664 52.9829 171.726 49.2329 170.031C45.7603 168.465 42.709 166.167 40.7467 163.275C38.4761 159.97 37.7261 156.055 38.0857 152.277C38.4556 148.275 39.9761 144.393 41.9898 140.77C43.7364 137.655 45.8733 134.703 48.2465 131.897C50.2705 129.522 52.4485 127.242 54.8322 125.107C54.8732 125.081 54.9555 125.021 55.0068 124.995C54.9657 126.794 55.1712 128.601 55.7877 130.331C56.4144 132.095 57.4726 133.756 58.8801 135.176C58.9624 135.262 59.0239 135.383 59.178 135.4C62.2294 133.481 65.1163 131.329 67.3663 128.739C69.6985 126.062 71.26 122.93 71.856 119.651C72.647 115.408 71.969 110.993 70.0992 107Z" fill="#FF616F"/>
</svg>
